<?xml version="1.0" encoding="utf-8"?>

<!DOCTYPE svg PUBLIC "-//W3C//DTD SVG 1.1//EN" "http://www.w3.org/Graphics/SVG/1.1/DTD/svg11.dtd">
<!-- Uploaded to: SVG Repo, www.svgrepo.com, Generator: SVG Repo Mixer Tools -->
<svg height="800px" width="800px" version="1.1" id="_x32_" xmlns="http://www.w3.org/2000/svg" xmlns:xlink="http://www.w3.org/1999/xlink" 
	 viewBox="0 0 512 512"  xml:space="preserve">
<style type="text/css">
	.st0{fill:#000000;}
</style>
<g>
	<path class="st0" d="M464.932,85.797H47.068C21.076,85.797,0,106.865,0,132.865v246.271c0,25.991,21.076,47.067,47.068,47.067
		h417.865c25.991,0,47.068-21.076,47.068-47.067V132.865C512,106.865,490.924,85.797,464.932,85.797z M123.254,167.399
		c25.966,0,47.026,21.059,47.026,47.034c0,25.974-21.06,47.025-47.026,47.025c-25.974,0-47.025-21.051-47.025-47.025
		C76.229,188.458,97.28,167.399,123.254,167.399z M123.254,348.916c-32.305,0-65.389-11.187-60.229-42.153
		c2.102-12.576,12.508-30.203,20.407-38.102c1.016-1.017,5.652-1.28,6.915-0.5c9.585,5.907,20.839,9.364,32.907,9.364
		c12.068,0,23.313-3.457,32.898-9.364c1.263-0.78,5.898-0.517,6.924,0.5c7.89,7.899,18.296,25.526,20.398,38.102
		C188.636,337.729,155.551,348.916,123.254,348.916z M366.424,333.492H232.194v-27h134.229V333.492z M446.686,267.068H232.194v-27
		h214.492V267.068z M446.686,200.644H232.194v-27h214.492V200.644z"/>
</g>
</svg>